<svg width="26" height="26" viewBox="0 0 26 26" fill="none" xmlns="http://www.w3.org/2000/svg">
<g filter="url(#filter0_d_7_269)">
<path d="M15 11.2222V17.4444M11 11.2222V17.4444M7 7.66667V18.1556C7 19.1512 7 19.6487 7.21799 20.029C7.40973 20.3635 7.71547 20.636 8.0918 20.8064C8.5192 21 9.07899 21 10.1969 21H15.8031C16.921 21 17.48 21 17.9074 20.8064C18.2837 20.636 18.5905 20.3635 18.7822 20.029C19 19.6491 19 19.152 19 18.1583V7.66667M7 7.66667H9M7 7.66667H5M19 7.66667H17M19 7.66667H21M9 7.66667H17M9 7.66667C9 6.83833 9 6.42436 9.15224 6.09765C9.35523 5.66205 9.74432 5.31576 10.2344 5.13532C10.6019 5 11.0681 5 12 5H14C14.9319 5 15.3978 5 15.7654 5.13532C16.2554 5.31576 16.6447 5.66205 16.8477 6.09765C16.9999 6.42436 17 6.83833 17 7.66667" stroke="#FF3636" stroke-width="2" stroke-linecap="round" stroke-linejoin="round" shape-rendering="crispEdges"/>
</g>
<defs>
<filter id="filter0_d_7_269" x="0" y="0" width="26" height="26" filterUnits="userSpaceOnUse" color-interpolation-filters="sRGB">
<feFlood flood-opacity="0" result="BackgroundImageFix"/>
<feColorMatrix in="SourceAlpha" type="matrix" values="0 0 0 0 0 0 0 0 0 0 0 0 0 0 0 0 0 0 127 0" result="hardAlpha"/>
<feOffset/>
<feGaussianBlur stdDeviation="2"/>
<feComposite in2="hardAlpha" operator="out"/>
<feColorMatrix type="matrix" values="0 0 0 0 0 0 0 0 0 0 0 0 0 0 0 0 0 0 0.4 0"/>
<feBlend mode="normal" in2="BackgroundImageFix" result="effect1_dropShadow_7_269"/>
<feBlend mode="normal" in="SourceGraphic" in2="effect1_dropShadow_7_269" result="shape"/>
</filter>
</defs>
</svg>
